HIERARCHY
ROOT Hips
{
	OFFSET 0.000000 0.000000 0.000000
	CHANNELS 6 Xposition Yposition Zposition Xrotation Yrotation Zrotation
	JOINT LeftUpLeg_virtual
	{
		OFFSET 0.000000 0.000000 0.000000
		CHANNELS 3 Xrotation Yrotation Zrotation
		JOINT LeftUpLeg
		{
			OFFSET 11.394100 -6.187798 -0.413800
			CHANNELS 3 Xrotation Yrotation Zrotation
			JOINT LeftLeg
			{
				OFFSET 0.430247 -32.302673 3.732800
				CHANNELS 3 Xrotation Yrotation Zrotation
				JOINT LeftFoot
				{
					OFFSET -0.430247 -48.264931 -6.423300
					CHANNELS 3 Xrotation Yrotation Zrotation
					JOINT LeftToeBase
					{
						OFFSET 4.230900 -16.068199 23.438400
						CHANNELS 3 Xrotation Yrotation Zrotation
						JOINT LeftToe_End
						{
							OFFSET 4.510700 0.695400 19.974600
							CHANNELS 3 Xrotation Yrotation Zrotation
							End Site
							{
								OFFSET 0 0 0
							}
						}
					}
				}
			}
		}
	}
	JOINT RightUpLeg_virtual
	{
		OFFSET 0.000000 0.000000 0.000000
		CHANNELS 3 Xrotation Yrotation Zrotation
		JOINT RightUpLeg
		{
			OFFSET -11.333700 -6.187798 -0.413800
			CHANNELS 3 Xrotation Yrotation Zrotation
			JOINT RightLeg
			{
				OFFSET -0.430392 -32.302628 3.733000
				CHANNELS 3 Xrotation Yrotation Zrotation
				JOINT RightFoot
				{
					OFFSET 0.430392 -48.264973 -6.423500
					CHANNELS 3 Xrotation Yrotation Zrotation
					JOINT RightToeBase
					{
						OFFSET -4.230900 -16.068199 23.438400
						CHANNELS 3 Xrotation Yrotation Zrotation
						JOINT RightToe_End
						{
							OFFSET -4.510700 0.695400 19.974600
							CHANNELS 3 Xrotation Yrotation Zrotation
							End Site
							{
								OFFSET 0 0 0
							}
						}
					}
				}
			}
		}
	}
	JOINT Spine_virtual
	{
		OFFSET 0.000000 0.000000 0.000000
		CHANNELS 3 Xrotation Yrotation Zrotation
		JOINT Spine
		{
			OFFSET -0.002400 12.777504 0.315300
			CHANNELS 3 Xrotation Yrotation Zrotation
			JOINT Spine1
			{
				OFFSET -0.002067 5.816869 0.032633
				CHANNELS 3 Xrotation Yrotation Zrotation
				JOINT Spine1_split
				{
					OFFSET -0.002067 5.816869 0.032633
					CHANNELS 3 Xrotation Yrotation Zrotation
					JOINT Spine2
					{
						OFFSET -0.002067 5.816869 0.032633
						CHANNELS 3 Xrotation Yrotation Zrotation
						JOINT Neck_virtual
						{
							OFFSET 0.000000 0.000000 0.000000
							CHANNELS 3 Xrotation Yrotation Zrotation
							JOINT Neck
							{
								OFFSET -0.003700 21.199493 -0.826900
								CHANNELS 3 Xrotation Yrotation Zrotation
								JOINT Head
								{
									OFFSET 0.000000 20.442200 4.834800
									CHANNELS 3 Xrotation Yrotation Zrotation
									JOINT HeadTop_End
									{
										OFFSET 0.000000 34.668396 4.968400
										CHANNELS 3 Xrotation Yrotation Zrotation
										End Site
										{
											OFFSET 0 0 0
										}
									}
								}
							}
						}
						JOINT LeftShoulder_virtual
						{
							OFFSET 0.000000 0.000000 0.000000
							CHANNELS 3 Xrotation Yrotation Zrotation
							JOINT LeftShoulder
							{
								OFFSET 3.288150 8.794197 -1.372250
								CHANNELS 3 Xrotation Yrotation Zrotation
								JOINT LeftShoulder_split
								{
									OFFSET 3.288150 8.794197 -1.372250
									CHANNELS 3 Xrotation Yrotation Zrotation
									JOINT LeftArm
									{
										OFFSET 11.953299 -2.279007 -0.146200
										CHANNELS 3 Xrotation Yrotation Zrotation
										JOINT LeftForeArm
										{
											OFFSET 18.448900 0.000000 0.000000
											CHANNELS 3 Xrotation Yrotation Zrotation
											JOINT LeftHand
											{
												OFFSET 29.527798 0.000000 0.000000
												CHANNELS 3 Xrotation Yrotation Zrotation
												End Site
												{
													OFFSET 0 0 0
												}
											}
										}
									}
								}
							}
						}
						JOINT RightShoulder_virtual
						{
							OFFSET 0.000000 0.000000 0.000000
							CHANNELS 3 Xrotation Yrotation Zrotation
							JOINT RightShoulder
							{
								OFFSET -3.249400 8.794197 -1.372250
								CHANNELS 3 Xrotation Yrotation Zrotation
								JOINT RightShoulder_split
								{
									OFFSET -3.249400 8.794197 -1.372250
									CHANNELS 3 Xrotation Yrotation Zrotation
									JOINT RightArm
									{
										OFFSET -11.953299 -2.279007 -0.146200
										CHANNELS 3 Xrotation Yrotation Zrotation
										JOINT RightForeArm
										{
											OFFSET -18.448900 0.000000 0.000000
											CHANNELS 3 Xrotation Yrotation Zrotation
											JOINT RightHand
											{
												OFFSET -29.527802 0.000000 0.000000
												CHANNELS 3 Xrotation Yrotation Zrotation
												End Site
												{
													OFFSET 0 0 0
												}
											}
										}
									}
								}
							}
						}
					}
				}
			}
		}
	}
}
MOTION
Frames: 5
Frame Time: 0.03333333
-12.189104 74.798553 -121.082611 0.000000 0.000000 0.000000 164.035285 -74.874904 157.643047 -65.182613 -11.237253 38.002828 37.706978 -12.570335 -2.185447 23.118315 3.164729 -15.373984 -1.699679 2.161844 2.077101 0.000000 0.000000 0.000000 160.666267 -74.271231 154.660003 -49.338722 0.046588 -28.427333 48.163082 3.313433 0.267394 4.309545 -0.685819 17.915393 -9.614672 -0.140860 1.525903 0.000000 0.000000 0.000000 161.313591 -75.643484 154.733250 5.163701 8.675327 1.207133 -0.214114 12.602979 2.694307 -0.169951 2.616698 0.930489 0.000000 0.000000 0.000000 8.861769 14.627449 0.431229 4.503214 9.613628 -6.122468 -9.915528 16.928429 7.565288 0.000000 0.000000 0.000000 6.249910 15.362508 0.186464 6.577866 9.329909 -11.669793 12.666071 1.168695 -1.426578 -52.174913 -34.985561 -47.252693 37.091134 -87.409954 33.263192 0.000000 0.000000 0.000000 7.447252 15.328350 1.403784 -13.703946 3.354865 -3.666714 12.404412 -0.522966 -5.283860 -92.944074 37.533068 110.170815 -7.845495 40.685507 4.805596 0.000000 0.000000 0.000000 
-10.293358 75.973595 -124.527328 0.000000 0.000000 0.000000 163.149437 -76.329181 156.741995 -67.390219 -9.449281 36.483452 38.763328 -12.305494 -1.613085 22.798191 2.464499 -15.628636 -2.761574 1.886814 2.324108 0.000000 0.000000 0.000000 162.532069 -75.116904 156.640458 -47.959348 -3.945242 -24.390904 54.001480 1.310673 1.104744 -0.324026 -3.873222 16.244809 -9.581145 0.205854 0.843629 0.000000 0.000000 0.000000 164.009822 -74.670647 156.884828 5.905833 8.137279 1.289904 -0.389447 11.745110 2.948979 0.069260 2.507101 0.825485 0.000000 0.000000 0.000000 8.945716 13.931118 0.602237 3.483470 10.509861 -7.042424 -10.878542 18.328229 8.188203 0.000000 0.000000 0.000000 6.447536 14.499110 0.531321 6.020106 8.911479 -11.511440 13.668702 4.728218 -1.928068 -52.529913 -34.724709 -48.206061 49.406115 -87.895041 45.359904 0.000000 0.000000 0.000000 7.427521 14.468514 1.555973 -13.651254 2.534648 -4.488145 12.711732 -0.326125 -6.525850 -93.261063 38.763902 110.468468 -7.668405 40.387062 4.644853 0.000000 0.000000 0.000000 
-8.835862 76.954453 -126.551468 0.000000 0.000000 0.000000 161.115147 -77.956692 154.637860 -70.545172 -8.316755 34.465186 42.266239 -11.215538 -1.035396 21.922530 2.458699 -14.758591 -4.015214 1.824503 1.695356 0.000000 0.000000 0.000000 163.979947 -75.724948 158.184244 -45.856142 -7.203910 -20.994477 57.251090 0.135691 1.313689 -4.790591 -6.375755 15.246478 -9.343696 0.638590 0.399692 0.000000 0.000000 0.000000 166.407341 -73.868462 159.066213 6.395755 7.930339 1.395652 -0.557634 11.064511 3.114465 0.175883 2.232674 0.929907 0.000000 0.000000 0.000000 9.216463 13.403248 0.634470 2.673574 11.009060 -7.912445 -11.501128 19.506908 8.380190 0.000000 0.000000 0.000000 6.739411 13.824138 0.710210 5.521839 8.738346 -11.575054 14.169169 7.437553 -1.621545 -52.973018 -34.711909 -49.084400 38.919692 -87.540745 34.552817 0.000000 0.000000 0.000000 7.534171 13.801166 1.568731 -13.596271 1.711951 -5.090450 12.608219 -0.465052 -7.444882 -93.572813 40.270877 110.641893 -7.307118 40.213931 4.307794 0.000000 0.000000 0.000000 
-8.150966 77.644096 -127.654434 0.000000 0.000000 0.000000 158.271835 -79.173763 151.791105 -73.545633 -7.408103 33.030778 46.047148 -9.709402 -0.769505 21.121221 3.133420 -13.091159 -3.891027 2.045785 0.286249 0.000000 0.000000 0.000000 164.031993 -76.186184 158.329413 -43.874297 -9.166475 -18.871362 57.296947 0.023896 0.840708 -8.083319 -7.843256 14.768575 -8.110470 0.987337 0.585132 0.000000 0.000000 0.000000 168.099384 -73.537635 160.898985 6.673925 7.966160 1.332504 -0.658581 10.595343 3.137299 0.115886 1.661596 1.003153 0.000000 0.000000 0.000000 9.487417 13.060552 0.547604 2.033207 11.111201 -8.517994 -11.605572 20.284588 8.309359 0.000000 0.000000 0.000000 7.017638 13.348119 0.709444 5.118801 8.975047 -11.522259 13.897525 9.289282 -0.889839 -53.268277 -34.732834 -49.674579 22.346139 -86.251274 17.601196 0.000000 0.000000 0.000000 7.646871 13.327902 1.460871 -13.550968 0.829843 -5.387463 12.331259 -0.371930 -8.394870 -94.068876 41.911820 110.930598 -6.773873 39.635933 3.855415 0.000000 0.000000 0.000000 
-8.053313 78.051964 -128.113129 0.000000 0.000000 0.000000 156.822427 -79.508982 150.527739 -75.373146 -6.417802 32.753332 48.050166 -8.774869 -0.713215 20.696049 3.742428 -11.823958 -2.884270 2.378911 -0.945458 0.000000 0.000000 0.000000 164.206504 -76.221155 158.736506 -42.796910 -9.655025 -18.294266 56.014607 0.738132 0.128246 -9.982524 -8.162749 14.170932 -5.026023 1.129569 1.407094 0.000000 0.000000 0.000000 169.255981 -73.452694 162.465489 6.891153 8.100879 1.008627 -0.675010 10.341252 3.075559 -0.066190 1.214519 0.903565 0.000000 0.000000 0.000000 9.607323 12.868391 0.405675 1.666061 10.903320 -8.809233 -11.226081 20.550171 8.125947 0.000000 0.000000 0.000000 7.198551 13.060723 0.619414 4.826802 9.521238 -11.126179 12.842980 10.170089 -0.559029 -53.191065 -34.772138 -49.832900 13.795357 -84.534096 8.685790 0.000000 0.000000 0.000000 7.646948 13.027385 1.332730 -13.543436 -0.174646 -5.388765 11.987475 -0.069671 -9.191344 -94.658349 43.546055 111.577117 -6.151767 38.506680 3.418258 0.000000 0.000000 0.000000 
